<svg width="31" height="21" viewBox="0 0 31 21" fill="none" xmlns="http://www.w3.org/2000/svg">
<path fill-rule="evenodd" clip-rule="evenodd" d="M27.4551 1.33461C27.1575 0.96115 26.7892 0.774421 26.35 0.774421H1.55C1.11187 0.773124 0.744005 0.959206 0.446405 1.33266C0.148805 1.70612 5.36328e-06 2.16841 5.36328e-06 2.71952V18.2803C-0.00102797 18.8301 0.147256 19.2917 0.444856 19.6652C0.742456 20.0387 1.11084 20.2254 1.55 20.2254H26.35C26.7881 20.2267 27.156 20.0406 27.4536 19.6671C27.7512 19.2937 27.9 18.8314 27.9 18.2803V14.3901H31V6.60971H27.9V2.71952C27.901 2.1697 27.7527 1.70807 27.4551 1.33461ZM3.1 4.66461H24.8V16.3352H3.1V4.66461ZM9.42161 6.24386C6.90384 6.24386 4.86279 8.28491 4.86279 10.8027C4.86279 13.3204 6.90384 15.3615 9.42161 15.3615H17.3236C19.8413 15.3615 21.8824 13.3204 21.8824 10.8027C21.8824 8.28491 19.8413 6.24386 17.3236 6.24386H9.42161Z" fill="white"/>
</svg>
