<svg width="77" height="57" viewBox="0 0 77 57" fill="none" xmlns="http://www.w3.org/2000/svg">
<path d="M30.4917 1.86626C28.4741 0.886781 26.1901 0.59916 23.9927 1.04786L19.684 1.86626C17.9802 2.19006 16.3727 2.89819 14.9837 3.93679C13.5947 4.97539 12.4609 6.31709 11.6686 7.85983C6.32489 18.2824 2.30992 26.7889 0.740521 34.0342C-0.877021 41.4672 0.0328458 47.8025 4.68809 53.5843C7.83652 57.4982 13.3535 56.7135 16.2371 53.4591C18.4853 50.9221 21.0368 47.9903 23.5161 45.1211C24.4239 44.0702 25.5473 43.2271 26.8099 42.6489C28.0726 42.0708 29.4448 41.7712 30.8335 41.7705H46.1713C47.5595 41.7724 48.9311 42.0731 50.1929 42.6521C51.4547 43.2311 52.5771 44.0748 53.4839 45.1259C55.8961 47.919 58.324 50.6984 60.7677 53.4639C63.6465 56.7183 69.1635 57.4982 72.3119 53.5843C76.9672 47.8074 77.877 41.4672 76.2595 34.039C74.6901 26.7889 70.6751 18.2824 65.3315 7.85983C64.5391 6.31709 63.4053 4.97539 62.0163 3.93679C60.6273 2.89819 59.0198 2.19006 57.316 1.86626L53.0121 1.04786C50.8132 0.598069 48.5273 0.885713 46.5083 1.86626L46.2291 2.00587C44.6548 2.80983 42.994 3.25754 41.3475 3.25754H35.6525C33.9493 3.23171 32.2764 2.80278 30.7709 2.00587L30.4917 1.86626ZM38.512 20.1069C37.5545 20.1069 36.6361 19.7265 35.959 19.0494C35.2819 18.3723 34.9015 17.4539 34.9015 16.4964C34.9015 15.5388 35.2819 14.6204 35.959 13.9433C36.6361 13.2662 37.5545 12.8858 38.512 12.8858C39.4696 12.8858 40.388 13.2662 41.0651 13.9433C41.7422 14.6204 42.1226 15.5388 42.1226 16.4964C42.1226 17.4539 41.7422 18.3723 41.0651 19.0494C40.388 19.7265 39.4696 20.1069 38.512 20.1069Z" fill="white"/>
</svg>
