<svg width="66" height="48" viewBox="0 0 66 48" fill="none" xmlns="http://www.w3.org/2000/svg">
<path d="M25.6441 0.858309C23.8951 -0.0277628 21.9645 -0.169667 20.1957 0.168592L16.493 0.878108C15.0762 1.14991 13.7402 1.74197 12.5871 2.60905C11.4341 3.47613 10.4944 4.59529 9.84005 5.88103C5.32884 14.7632 1.93801 22.0069 0.61633 28.1731C-0.740003 34.5026 0.0388164 39.8916 3.98901 44.8088C6.62907 48.094 11.2541 47.4406 13.6582 44.6999C15.5367 42.554 17.4034 40.3979 19.2585 38.2317C19.997 37.3686 20.9135 36.6754 21.9451 36.1997C22.9767 35.7241 24.0989 35.4773 25.2349 35.4761H40.7651C41.9011 35.4769 43.0235 35.7236 44.0551 36.1993C45.0868 36.675 46.0032 37.3683 46.7415 38.2317C48.5966 40.3979 50.4633 42.554 52.3418 44.6999C54.7459 47.4389 59.3709 48.094 62.011 44.8088C65.9612 39.8916 66.74 34.5026 65.3837 28.1747C64.062 22.0069 60.6712 14.7632 56.16 5.88268C55.5056 4.59694 54.5659 3.47778 53.4129 2.6107C52.2598 1.74362 50.9239 1.15157 49.507 0.879758L45.8043 0.170241C44.0355 -0.169668 42.1033 -0.0277628 40.3559 0.858309C40.0085 1.03336 39.6636 1.21323 39.3213 1.39787C38.0277 2.09089 36.6383 2.47535 35.2589 2.47535H30.7411C29.3617 2.47535 27.9723 2.09254 26.6787 1.39787C26.3362 1.21357 25.9913 1.0337 25.6441 0.858309ZM20.9729 4.22109C22.0058 4.02308 22.9843 4.13364 23.7812 4.5379C24.0881 4.693 24.4033 4.858 24.7267 5.03291C26.5417 6.00643 28.5944 6.60045 30.7411 6.60045H35.2589C37.404 6.60045 39.4599 6.00643 41.2733 5.03291C41.5967 4.858 41.9119 4.693 42.2188 4.5379C43.0157 4.13364 43.9942 4.02308 45.0271 4.22109L48.7298 4.93061C50.3485 5.24081 51.7395 6.28364 52.482 7.74887C57.0295 16.702 60.158 23.4787 61.351 29.0393C62.5093 34.4399 61.7998 38.4842 58.7934 42.2265C58.107 43.0812 56.5411 43.233 55.4422 41.979C53.5743 39.8446 51.7179 37.7 49.8733 35.5454C48.7474 34.2308 47.3504 33.1753 45.7783 32.4513C44.2061 31.7273 42.4959 31.352 40.7651 31.351H25.2349C21.7286 31.351 18.4038 32.8905 16.1267 35.5454C14.2821 37.7001 12.4258 39.8446 10.5578 41.979C9.45889 43.233 7.893 43.0812 7.20494 42.2265C4.20022 38.4842 3.49235 34.4399 4.64903 29.0393C5.842 23.4787 8.97048 16.702 13.5163 7.74887C13.8861 7.02426 14.4165 6.39369 15.0671 5.90527C15.7176 5.41684 16.4712 5.08348 17.2702 4.93061L20.9729 4.22109ZM32.9934 17.3257C33.8686 17.3257 34.708 16.978 35.3269 16.3591C35.9458 15.7402 36.2935 14.9009 36.2935 14.0256C36.2935 13.1504 35.9458 12.311 35.3269 11.6921C34.708 11.0732 33.8686 10.7255 32.9934 10.7255C32.1182 10.7255 31.2788 11.0732 30.6599 11.6921C30.041 12.311 29.6933 13.1504 29.6933 14.0256C29.6933 14.9009 30.041 15.7402 30.6599 16.3591C31.2788 16.978 32.1182 17.3257 32.9934 17.3257Z" fill="white"/>
</svg>
