<svg width="37" height="25" viewBox="0 0 37 25" fill="none" xmlns="http://www.w3.org/2000/svg">
<rect x="0.5" y="0.5" width="36" height="23.6154" fill="white" stroke="white"/>
<path d="M7.94887 6.361C8.3585 6.36698 8.7487 6.36997 9.11947 6.36997C9.75336 6.36997 10.2497 6.36698 10.6085 6.361C10.5696 6.77064 10.5293 7.3507 10.4874 8.10121C10.4485 8.85171 10.4246 9.41832 10.4157 9.80105C10.0718 9.86384 9.78625 9.90869 9.55901 9.9356C9.33475 9.9655 9.06415 9.99091 8.74721 10.0118C8.43026 10.0358 8.1477 10.0477 7.89953 10.0477C7.49288 10.0477 7.09371 10.0148 6.70202 9.94905C6.31032 9.88327 5.95899 9.77713 5.64803 9.63061C5.34005 9.4841 5.08291 9.28526 4.87659 9.0341C4.67028 8.78294 4.51031 8.48543 4.39669 8.14157C4.28606 7.79772 4.23074 7.4419 4.23074 7.07412C4.23074 6.46715 4.38174 5.90352 4.68374 5.38325C4.98573 4.86299 5.41929 4.45185 5.98441 4.14986C6.55251 3.84488 7.28508 3.69238 8.18209 3.69238C8.83691 3.69238 9.562 3.77162 10.3573 3.93009C10.3573 4.36664 10.3768 4.85252 10.4157 5.38774C10.2004 5.31598 10.0255 5.26216 9.8909 5.22628C9.75934 5.18741 9.60386 5.15302 9.42445 5.12312C9.24804 5.09023 9.0791 5.06631 8.91764 5.05136C8.75917 5.03641 8.61714 5.02893 8.49156 5.02893C8.16265 5.02893 7.85169 5.07677 7.55866 5.17246C7.26564 5.26515 7.01298 5.41016 6.80069 5.60751C6.59138 5.80186 6.43441 6.03508 6.32976 6.30718C6.2251 6.57927 6.17278 6.86632 6.17278 7.16831C6.17278 7.47629 6.23258 7.75137 6.35218 7.99356C6.47178 8.23277 6.66165 8.41516 6.92178 8.54074C7.18192 8.66632 7.47195 8.72912 7.79189 8.72912C8.058 8.72912 8.34953 8.69024 8.66648 8.6125L8.71581 7.63924C8.52146 7.63027 8.40634 7.62579 8.37046 7.62579L7.89504 7.63027L7.92644 7.07861C7.92943 7.01881 7.93392 6.93359 7.9399 6.82296C7.94588 6.70934 7.94887 6.55535 7.94887 6.361Z" fill="black"/>
<path d="M10.7117 9.93111L11.0839 9.28526L13.4027 4.91681L13.6494 4.42793C13.7211 4.28441 13.8213 4.0781 13.9499 3.80899C14.4761 3.81497 14.8604 3.81796 15.1026 3.81796C15.5241 3.81796 15.9143 3.81497 16.2732 3.80899L16.928 5.67927L18.26 9.27629L18.5202 9.93111C18.0029 9.92513 17.6889 9.92214 17.5783 9.92214C17.3271 9.92214 16.9579 9.92513 16.4705 9.93111C16.3389 9.43776 16.1491 8.85769 15.9009 8.19091H13.6404C13.3803 8.71715 13.1112 9.29722 12.8331 9.93111C12.277 9.92513 11.9361 9.92214 11.8105 9.92214C11.5833 9.92214 11.217 9.92513 10.7117 9.93111ZM14.1831 6.88575H15.578C15.2311 5.83027 15.0413 5.2487 15.0084 5.14106C14.811 5.5806 14.6436 5.9409 14.506 6.22196L14.1831 6.88575Z" fill="black"/>
<path d="M18.8924 9.93111L19.0046 9.02513L19.2826 5.8811L19.4217 3.80899C19.9718 3.81497 20.4039 3.81796 20.7179 3.81796C20.978 3.81796 21.3757 3.81497 21.9109 3.80899C21.9498 4.06614 21.9826 4.26199 22.0096 4.39654C22.0365 4.5281 22.1022 4.78823 22.2069 5.17694C22.3145 5.56266 22.3998 5.89754 22.4625 6.1816C22.5283 6.46266 22.6255 6.94555 22.7541 7.63027C22.8856 7.16084 23.0052 6.75718 23.1129 6.4193C23.2205 6.08143 23.3551 5.69721 23.5165 5.26664C23.678 4.83608 23.7797 4.55501 23.8215 4.42345C23.8664 4.2889 23.9262 4.08408 24.0009 3.80899C24.4494 3.81497 24.889 3.81796 25.3195 3.81796C25.6126 3.81796 26.0192 3.81497 26.5395 3.80899C26.4827 4.81664 26.4453 5.68226 26.4273 6.40585C26.3885 7.82313 26.369 8.79789 26.369 9.33011C26.369 9.44075 26.372 9.64108 26.378 9.93111C25.9833 9.92513 25.7067 9.92214 25.5483 9.92214C25.318 9.92214 25.0355 9.92513 24.7006 9.93111C24.7245 9.66201 24.7544 9.02214 24.7903 8.0115C24.8262 6.99788 24.8441 6.35053 24.8441 6.06947C24.8441 5.94688 24.8411 5.77644 24.8351 5.55817L24.2476 7.38359L23.4044 9.93111C23.0157 9.92513 22.7481 9.92214 22.6016 9.92214C22.4162 9.92214 22.1321 9.92513 21.7494 9.93111L21.1978 7.46433L20.8748 6.1502C20.8629 6.09937 20.8494 6.03658 20.8345 5.96183C20.8195 5.88708 20.7956 5.75551 20.7627 5.56714L20.6506 6.80951L20.5026 9.35702L20.4891 9.93111C20.0765 9.92513 19.8134 9.92214 19.6997 9.92214C19.5443 9.92214 19.2752 9.92513 18.8924 9.93111Z" fill="black"/>
<path d="M27.4499 9.93111C27.5247 9.15968 27.5785 8.51383 27.6114 7.99356C27.6473 7.4733 27.6817 6.7826 27.7146 5.92146C27.7504 5.05734 27.7684 4.48474 27.7684 4.20368L27.7639 3.80899C28.4696 3.81497 29.3232 3.81796 30.3249 3.81796C31.2488 3.81796 32.0636 3.81497 32.7692 3.80899L32.7603 3.957C32.7573 3.99288 32.7498 4.12295 32.7378 4.3472L32.7109 4.83608C32.705 4.94073 32.702 5.04687 32.702 5.15452C32.1249 5.13059 31.6405 5.11863 31.2488 5.11863C30.8182 5.11863 30.5267 5.12013 30.3742 5.12312C30.2247 5.12312 29.99 5.1291 29.6701 5.14106L29.6162 6.16814C29.9691 6.17711 30.3802 6.1816 30.8496 6.1816C31.0171 6.1816 31.4626 6.17113 32.1862 6.1502C32.1563 6.53293 32.1279 6.98891 32.101 7.51815C31.5837 7.51217 31.186 7.50918 30.9079 7.50918C30.4953 7.50918 30.0333 7.51964 29.522 7.54057L29.4682 8.63044H29.984C30.1365 8.63044 30.452 8.62596 30.9304 8.61699L31.8588 8.59456C31.9963 8.59157 32.2265 8.57961 32.5495 8.55868C32.5136 9.00121 32.4837 9.45869 32.4598 9.93111C31.7302 9.92513 30.9304 9.92214 30.0603 9.92214L28.0868 9.92663L27.4499 9.93111Z" fill="black"/>
<path d="M7.19537 20.8388L7.28508 19.6906L7.40169 17.4481L7.45102 15.8604C7.45401 15.6899 7.45551 15.5195 7.45551 15.3491C7.45551 15.2205 7.45401 15.0097 7.45102 14.7167C7.84571 14.7257 8.16265 14.7301 8.40186 14.7301C8.63209 14.7301 8.94754 14.7242 9.34821 14.7122C9.74887 14.6972 10.0882 14.6898 10.3663 14.6898C10.767 14.6898 11.063 14.7152 11.2544 14.766C11.4487 14.8168 11.6236 14.8976 11.7791 15.0082C11.9346 15.1159 12.0632 15.2429 12.1648 15.3894C12.2665 15.536 12.3427 15.7034 12.3936 15.8918C12.4444 16.0772 12.4698 16.267 12.4698 16.4614C12.4698 16.862 12.3726 17.2283 12.1783 17.5602C11.9839 17.8921 11.7103 18.1403 11.3575 18.3047C11.0047 18.4692 10.6085 18.5514 10.169 18.5514C10.0075 18.5514 9.82063 18.5335 9.60834 18.4976C9.58442 18.3601 9.53957 18.1552 9.47379 17.8831C9.40801 17.611 9.35419 17.4092 9.31233 17.2777C9.44389 17.3046 9.58143 17.318 9.72495 17.318C10.0269 17.318 10.2512 17.2463 10.3977 17.1027C10.5472 16.9562 10.622 16.7783 10.622 16.569C10.622 16.4674 10.6055 16.3777 10.5726 16.2999C10.5397 16.2192 10.4874 16.1534 10.4157 16.1026C10.3439 16.0517 10.2647 16.0188 10.1779 16.0039C10.0912 15.9889 9.99256 15.9815 9.88193 15.9815C9.77429 15.9815 9.66216 15.9845 9.54555 15.9904L9.1688 16.0174C9.12993 16.5944 9.10003 17.2358 9.0791 17.9414C9.04023 19.2272 9.0208 19.9986 9.0208 20.2557V20.8388L8.12827 20.8298C8.00269 20.8298 7.69172 20.8328 7.19537 20.8388Z" fill="black"/>
<path d="M12.2411 20.8388L12.6133 20.193L14.9321 15.8245L15.1788 15.3356C15.2506 15.1921 15.3507 14.9858 15.4793 14.7167C16.0055 14.7227 16.3898 14.7257 16.632 14.7257C17.0536 14.7257 17.4438 14.7227 17.8026 14.7167L18.4574 16.587L19.7894 20.184L20.0496 20.8388C19.5323 20.8328 19.2183 20.8298 19.1077 20.8298C18.8566 20.8298 18.4873 20.8328 17.9999 20.8388C17.8683 20.3454 17.6785 19.7654 17.4303 19.0986H15.1698C14.9097 19.6248 14.6406 20.2049 14.3625 20.8388C13.8064 20.8328 13.4655 20.8298 13.3399 20.8298C13.1127 20.8298 12.7464 20.8328 12.2411 20.8388ZM15.7125 17.7934H17.1074C16.7605 16.738 16.5707 16.1564 16.5378 16.0487C16.3404 16.4883 16.173 16.8486 16.0354 17.1296L15.7125 17.7934Z" fill="black"/>
<path d="M20.4712 20.7446C20.4323 20.1077 20.3875 19.5979 20.3366 19.2152C20.6715 19.3647 20.969 19.4694 21.2292 19.5292C21.4923 19.586 21.7225 19.6144 21.9199 19.6144C22.18 19.6144 22.3863 19.577 22.5388 19.5023C22.6943 19.4245 22.772 19.3109 22.772 19.1614C22.772 19.1106 22.7645 19.0627 22.7496 19.0179C22.7346 18.97 22.7062 18.9177 22.6644 18.8609C22.6225 18.8011 22.5627 18.7368 22.485 18.668L21.6418 17.9325C21.4444 17.765 21.3069 17.6439 21.2292 17.5692C21.0707 17.4167 20.9466 17.2747 20.8569 17.1431C20.7702 17.0115 20.7059 16.8785 20.664 16.7439C20.6252 16.6064 20.6057 16.4614 20.6057 16.3089C20.6057 16.1265 20.6371 15.9486 20.6999 15.7752C20.7657 15.5987 20.8629 15.4343 20.9914 15.2818C21.12 15.1293 21.2905 14.9977 21.5027 14.8871C21.715 14.7765 21.9423 14.7017 22.1845 14.6629C22.4267 14.621 22.6763 14.6001 22.9335 14.6001C23.4388 14.6001 23.989 14.6584 24.584 14.775C24.593 14.9813 24.6034 15.1712 24.6154 15.3446C24.6273 15.515 24.6557 15.8155 24.7006 16.2461C24.4255 16.1355 24.1743 16.0592 23.9471 16.0174C23.7199 15.9725 23.524 15.9501 23.3596 15.9501C23.1263 15.9501 22.932 15.9934 22.7765 16.0801C22.624 16.1669 22.5478 16.2745 22.5478 16.4031C22.5478 16.4629 22.5597 16.5212 22.5836 16.578C22.6076 16.6348 22.6524 16.7021 22.7182 16.7798C22.784 16.8546 22.8707 16.9383 22.9783 17.031C23.086 17.1207 23.2549 17.2552 23.4851 17.4346L23.8081 17.6903C23.9037 17.768 24.0069 17.8622 24.1175 17.9728C24.2282 18.0835 24.3239 18.1926 24.4046 18.3003C24.4853 18.4079 24.5466 18.5066 24.5885 18.5963C24.6333 18.686 24.6662 18.7772 24.6871 18.8699C24.7081 18.9596 24.7185 19.0567 24.7185 19.1614C24.7185 19.4305 24.6543 19.6876 24.5257 19.9328C24.3971 20.175 24.2147 20.3753 23.9785 20.5338C23.7423 20.6893 23.4822 20.7984 23.1981 20.8612C22.917 20.924 22.6195 20.9554 22.3056 20.9554C21.8212 20.9554 21.2097 20.8851 20.4712 20.7446Z" fill="black"/>
<path d="M25.5483 20.7446C25.5094 20.1077 25.4646 19.5979 25.4137 19.2152C25.7486 19.3647 26.0461 19.4694 26.3063 19.5292C26.5694 19.586 26.7996 19.6144 26.997 19.6144C27.2571 19.6144 27.4634 19.577 27.6159 19.5023C27.7714 19.4245 27.8491 19.3109 27.8491 19.1614C27.8491 19.1106 27.8416 19.0627 27.8267 19.0179C27.8117 18.97 27.7833 18.9177 27.7415 18.8609C27.6996 18.8011 27.6398 18.7368 27.5621 18.668L26.7189 17.9325C26.5215 17.765 26.384 17.6439 26.3063 17.5692C26.1478 17.4167 26.0237 17.2747 25.934 17.1431C25.8473 17.0115 25.783 16.8785 25.7411 16.7439C25.7023 16.6064 25.6828 16.4614 25.6828 16.3089C25.6828 16.1265 25.7142 15.9486 25.777 15.7752C25.8428 15.5987 25.94 15.4343 26.0685 15.2818C26.1971 15.1293 26.3675 14.9977 26.5798 14.8871C26.7921 14.7765 27.0194 14.7017 27.2616 14.6629C27.5038 14.621 27.7534 14.6001 28.0106 14.6001C28.5159 14.6001 29.0661 14.6584 29.6611 14.775C29.6701 14.9813 29.6805 15.1712 29.6925 15.3446C29.7044 15.515 29.7328 15.8155 29.7777 16.2461C29.5026 16.1355 29.2514 16.0592 29.0242 16.0174C28.797 15.9725 28.6011 15.9501 28.4367 15.9501C28.2034 15.9501 28.0091 15.9934 27.8536 16.0801C27.7011 16.1669 27.6249 16.2745 27.6249 16.4031C27.6249 16.4629 27.6368 16.5212 27.6607 16.578C27.6847 16.6348 27.7295 16.7021 27.7953 16.7798C27.8611 16.8546 27.9478 16.9383 28.0554 17.031C28.1631 17.1207 28.332 17.2552 28.5622 17.4346L28.8852 17.6903C28.9808 17.768 29.084 17.8622 29.1946 17.9728C29.3053 18.0835 29.4009 18.1926 29.4817 18.3003C29.5624 18.4079 29.6237 18.5066 29.6656 18.5963C29.7104 18.686 29.7433 18.7772 29.7642 18.8699C29.7852 18.9596 29.7956 19.0567 29.7956 19.1614C29.7956 19.4305 29.7313 19.6876 29.6028 19.9328C29.4742 20.175 29.2918 20.3753 29.0556 20.5338C28.8194 20.6893 28.5593 20.7984 28.2752 20.8612C27.9941 20.924 27.6966 20.9554 27.3827 20.9554C26.8983 20.9554 26.2868 20.8851 25.5483 20.7446Z" fill="black"/>
</svg>
