<svg width="23" height="23" viewBox="0 0 23 23" fill="none" xmlns="http://www.w3.org/2000/svg">
<path fill-rule="evenodd" clip-rule="evenodd" d="M11.5 23C17.8513 23 23 17.8513 23 11.5C23 5.14873 17.8513 0 11.5 0C5.14873 0 0 5.14873 0 11.5C0 17.8513 5.14873 23 11.5 23ZM14.9401 17.5526V12.6869H11.0035V14.3253H12.0249V15.8716H9.74096V7.92041H11.4149V11.1051H14.9401V8.84958C14.9401 8.66044 14.9235 8.45947 14.8904 8.24669C14.8573 8.02917 14.7888 7.81402 14.6847 7.60123C14.5854 7.38844 14.4365 7.18511 14.2379 6.99124C14.044 6.79264 13.7839 6.62004 13.4577 6.47345C13.1361 6.32214 12.7365 6.20156 12.2589 6.11171C11.7861 6.02187 11.2163 5.97695 10.5496 5.97695C9.86863 5.97695 9.28701 6.01951 8.80469 6.10462C8.3271 6.18974 7.92753 6.30559 7.60599 6.45218C7.28917 6.59403 7.03619 6.7619 6.84704 6.95577C6.66263 7.14492 6.52313 7.34588 6.42856 7.55867C6.33872 7.77146 6.27961 7.98898 6.25124 8.21122C6.22759 8.43347 6.21577 8.64625 6.21577 8.84958V15.0133C6.21577 15.2025 6.23705 15.4034 6.27961 15.6162C6.32689 15.8243 6.40255 16.0324 6.50658 16.2404C6.61061 16.4485 6.74774 16.6471 6.91797 16.8362C7.09293 17.0254 7.30808 17.1932 7.56343 17.3398C7.81877 17.4864 8.11668 17.6023 8.45714 17.6874C8.80233 17.7725 9.19953 17.815 9.64875 17.815C10.0129 17.815 10.3131 17.763 10.5496 17.659C10.7907 17.555 10.9822 17.4415 11.1241 17.3185C11.2896 17.172 11.4196 17.0041 11.5142 16.8149L11.8546 17.5526H14.9401Z" fill="#D9D9D9"/>
</svg>
