<svg width="32" height="22" viewBox="0 0 32 22" fill="none" xmlns="http://www.w3.org/2000/svg">
<path d="M6.95622 5.59524C7.30733 5.60037 7.64179 5.60293 7.95959 5.60293C8.50293 5.60293 8.92837 5.60037 9.23591 5.59524C9.2026 5.94636 9.168 6.44356 9.13212 7.08685C9.0988 7.73013 9.0783 8.2158 9.07061 8.54385C8.77587 8.59767 8.53112 8.63611 8.33634 8.65918C8.14412 8.68481 7.91218 8.70659 7.64051 8.72453C7.36884 8.74504 7.12665 8.75529 6.91393 8.75529C6.56538 8.75529 6.22323 8.7271 5.88749 8.67071C5.55175 8.61433 5.25061 8.52335 4.98407 8.39777C4.72009 8.27218 4.49968 8.10175 4.32284 7.88647C4.146 7.67119 4.00889 7.41618 3.9115 7.12145C3.81667 6.82671 3.76926 6.52173 3.76926 6.20649C3.76926 5.68623 3.89868 5.20312 4.15754 4.75718C4.41639 4.31123 4.78801 3.95884 5.2724 3.69998C5.75935 3.43857 6.38725 3.30786 7.15612 3.30786C7.7174 3.30786 8.3389 3.37578 9.02063 3.51161C9.02063 3.88579 9.03729 4.30226 9.07061 4.76102C8.88608 4.69951 8.73615 4.65338 8.62082 4.62263C8.50805 4.58931 8.37478 4.55983 8.22101 4.53421C8.0698 4.50601 7.92499 4.48551 7.7866 4.4727C7.65076 4.45988 7.52902 4.45347 7.42138 4.45347C7.13946 4.45347 6.87292 4.49448 6.62176 4.57649C6.3706 4.65594 6.15403 4.78024 5.97207 4.94939C5.79266 5.11598 5.65811 5.31589 5.56841 5.54911C5.47871 5.78233 5.43386 6.02837 5.43386 6.28722C5.43386 6.5512 5.48512 6.78699 5.58763 6.99458C5.69015 7.19961 5.85289 7.35595 6.07586 7.46359C6.29883 7.57123 6.54744 7.62505 6.82167 7.62505C7.04976 7.62505 7.29965 7.59174 7.57131 7.5251L7.6136 6.69088C7.44701 6.68319 7.34834 6.67935 7.31759 6.67935L6.91009 6.68319L6.937 6.21034C6.93956 6.15908 6.9434 6.08604 6.94853 5.99121C6.95365 5.89382 6.95622 5.76183 6.95622 5.59524Z" fill="white"/>
<path d="M9.32433 8.65534L9.64341 8.10175L11.6309 4.35737L11.8424 3.93833C11.9039 3.81531 11.9897 3.63847 12.0999 3.40781C12.551 3.41294 12.8804 3.4155 13.0879 3.4155C13.4493 3.4155 13.7838 3.41294 14.0913 3.40781L14.6526 5.0109L15.7944 8.09406L16.0173 8.65534C15.574 8.65021 15.3049 8.64765 15.21 8.64765C14.9947 8.64765 14.6782 8.65021 14.2605 8.65534C14.1477 8.23246 13.985 7.73526 13.7722 7.16373H11.8347C11.6117 7.6148 11.3811 8.112 11.1427 8.65534C10.666 8.65021 10.3738 8.64765 10.2662 8.64765C10.0714 8.64765 9.75746 8.65021 9.32433 8.65534ZM12.2999 6.04503H13.4954C13.1982 5.14033 13.0354 4.64185 13.0072 4.54958C12.8381 4.92633 12.6945 5.23516 12.5766 5.47607L12.2999 6.04503Z" fill="white"/>
<path d="M16.3364 8.65534L16.4325 7.87878L16.6709 5.1839L16.79 3.40781C17.2616 3.41294 17.632 3.4155 17.9011 3.4155C18.124 3.4155 18.4649 3.41294 18.9237 3.40781C18.957 3.62822 18.9852 3.79609 19.0082 3.91142C19.0313 4.02419 19.0877 4.24716 19.1774 4.58034C19.2697 4.91095 19.3427 5.19799 19.3965 5.44147C19.4529 5.68238 19.5362 6.09629 19.6464 6.68319C19.7592 6.28082 19.8617 5.93483 19.9539 5.64522C20.0462 5.35561 20.1615 5.02628 20.2999 4.65722C20.4383 4.28817 20.5255 4.04726 20.5613 3.93449C20.5998 3.81916 20.6511 3.6436 20.7151 3.40781C21.0996 3.41294 21.4763 3.4155 21.8454 3.4155C22.0965 3.4155 22.4451 3.41294 22.891 3.40781C22.8423 4.27151 22.8103 5.01347 22.7949 5.63369C22.7616 6.8485 22.7449 7.684 22.7449 8.14019C22.7449 8.23502 22.7475 8.40674 22.7526 8.65534C22.4143 8.65021 22.1773 8.64765 22.0414 8.64765C21.8441 8.64765 21.6019 8.65021 21.3148 8.65534C21.3353 8.42468 21.361 7.87622 21.3917 7.00996C21.4225 6.14114 21.4379 5.58627 21.4379 5.34536C21.4379 5.24028 21.4353 5.0942 21.4302 4.90711L20.9266 6.47175L20.2038 8.65534C19.8706 8.65021 19.6413 8.64765 19.5157 8.64765C19.3568 8.64765 19.1133 8.65021 18.7853 8.65534L18.3124 6.54095L18.0356 5.41456C18.0254 5.37099 18.0138 5.31717 18.001 5.2531C17.9882 5.18902 17.9677 5.07626 17.9395 4.91479L17.8434 5.97968L17.7165 8.16326L17.705 8.65534C17.3513 8.65021 17.1258 8.64765 17.0284 8.64765C16.8951 8.64765 16.6645 8.65021 16.3364 8.65534Z" fill="white"/>
<path d="M23.6714 8.65534C23.7355 7.99411 23.7816 7.44053 23.8098 6.99458C23.8406 6.54864 23.87 5.95661 23.8982 5.2185C23.929 4.47782 23.9444 3.98703 23.9444 3.74612L23.9405 3.40781C24.5454 3.41294 25.2771 3.4155 26.1356 3.4155C26.9276 3.4155 27.626 3.41294 28.2308 3.40781L28.2231 3.53468C28.2206 3.56543 28.2142 3.67692 28.2039 3.86913L28.1808 4.28817C28.1757 4.37787 28.1732 4.46885 28.1732 4.56112C27.6785 4.54061 27.2633 4.53036 26.9276 4.53036C26.5585 4.53036 26.3086 4.53164 26.1779 4.53421C26.0498 4.53421 25.8486 4.53933 25.5744 4.54958L25.5282 5.42994C25.8307 5.43762 26.1831 5.44147 26.5854 5.44147C26.729 5.44147 27.1108 5.4325 27.7311 5.41456C27.7054 5.74261 27.6811 6.13345 27.658 6.58708C27.2146 6.58196 26.8738 6.57939 26.6354 6.57939C26.2817 6.57939 25.8858 6.58836 25.4475 6.6063L25.4014 7.54048H25.8435C25.9742 7.54048 26.2446 7.53663 26.6546 7.52894L27.4504 7.50972C27.5683 7.50716 27.7656 7.49691 28.0424 7.47897C28.0117 7.85828 27.9861 8.2504 27.9656 8.65534C27.3402 8.65021 26.6546 8.64765 25.9088 8.64765L24.2173 8.65149L23.6714 8.65534Z" fill="white"/>
<path d="M6.31037 18.0048L6.38725 17.0206L6.48721 15.0984L6.5295 13.7376C6.53206 13.5915 6.53334 13.4454 6.53334 13.2993C6.53334 13.1891 6.53206 13.0084 6.5295 12.7572C6.8678 12.7649 7.13946 12.7688 7.3445 12.7688C7.54184 12.7688 7.81222 12.7637 8.15565 12.7534C8.49908 12.7406 8.78997 12.7342 9.02832 12.7342C9.37175 12.7342 9.62547 12.756 9.7895 12.7995C9.95609 12.8431 10.106 12.9123 10.2393 13.0071C10.3726 13.0994 10.4828 13.2083 10.5699 13.3339C10.657 13.4595 10.7224 13.603 10.766 13.7645C10.8095 13.9234 10.8313 14.0861 10.8313 14.2527C10.8313 14.5961 10.748 14.9101 10.5814 15.1946C10.4148 15.479 10.1803 15.6918 9.87792 15.8327C9.5755 15.9737 9.23591 16.0442 8.85917 16.0442C8.72077 16.0442 8.56059 16.0288 8.37862 15.998C8.35812 15.8801 8.31968 15.7046 8.26329 15.4713C8.20691 15.2381 8.16078 15.0651 8.1249 14.9524C8.23767 14.9754 8.35556 14.987 8.47858 14.987C8.73743 14.987 8.92965 14.9255 9.05523 14.8024C9.18337 14.6769 9.24745 14.5244 9.24745 14.345C9.24745 14.2578 9.23335 14.1809 9.20516 14.1143C9.17697 14.0451 9.13212 13.9887 9.07061 13.9451C9.0091 13.9016 8.94118 13.8734 8.86686 13.8606C8.79253 13.8478 8.70796 13.8413 8.61313 13.8413C8.52087 13.8413 8.42476 13.8439 8.3248 13.849L8.00188 13.8721C7.96856 14.3667 7.94293 14.9165 7.92499 15.5213C7.89167 16.6234 7.87502 17.2846 7.87502 17.505V18.0048L7.10999 17.9971C7.00235 17.9971 6.73581 17.9996 6.31037 18.0048Z" fill="white"/>
<path d="M10.6353 18.0048L10.9543 17.4512L12.9419 13.7068L13.1533 13.2878C13.2148 13.1647 13.3007 12.9879 13.4109 12.7572C13.8619 12.7624 14.1913 12.7649 14.3989 12.7649C14.7602 12.7649 15.0947 12.7624 15.4022 12.7572L15.9635 14.3603L17.1053 17.4435L17.3283 18.0048C16.8849 17.9996 16.6158 17.9971 16.5209 17.9971C16.3057 17.9971 15.9891 17.9996 15.5714 18.0048C15.4586 17.5819 15.2959 17.0847 15.0832 16.5132H13.1456C12.9226 16.9642 12.692 17.4614 12.4536 18.0048C11.9769 17.9996 11.6848 17.9971 11.5771 17.9971C11.3823 17.9971 11.0684 17.9996 10.6353 18.0048ZM13.6108 15.3945H14.8064C14.5091 14.4898 14.3463 13.9913 14.3181 13.899C14.149 14.2758 14.0055 14.5846 13.8876 14.8255L13.6108 15.3945Z" fill="white"/>
<path d="M17.6896 17.924C17.6563 17.3781 17.6179 16.9412 17.5743 16.6131C17.8613 16.7413 18.1163 16.831 18.3393 16.8822C18.5649 16.9309 18.7622 16.9553 18.9313 16.9553C19.1543 16.9553 19.3312 16.9232 19.4619 16.8592C19.5951 16.7925 19.6618 16.6951 19.6618 16.567C19.6618 16.5234 19.6554 16.4824 19.6426 16.444C19.6297 16.403 19.6054 16.3581 19.5695 16.3094C19.5336 16.2582 19.4824 16.2031 19.4157 16.1441L18.693 15.5136C18.5238 15.3701 18.406 15.2663 18.3393 15.2022C18.2035 15.0715 18.0971 14.9498 18.0202 14.837C17.9459 14.7243 17.8908 14.6102 17.8549 14.4949C17.8216 14.377 17.805 14.2527 17.805 14.122C17.805 13.9656 17.8319 13.8132 17.8857 13.6645C17.9421 13.5133 18.0254 13.3723 18.1356 13.2416C18.2458 13.1109 18.3919 12.9982 18.5738 12.9033C18.7558 12.8085 18.9506 12.7444 19.1582 12.7111C19.3658 12.6752 19.5798 12.6573 19.8002 12.6573C20.2333 12.6573 20.7049 12.7073 21.2149 12.8072C21.2226 12.9841 21.2315 13.1468 21.2418 13.2955C21.2521 13.4415 21.2764 13.6991 21.3148 14.0682C21.0791 13.9733 20.8638 13.908 20.669 13.8721C20.4742 13.8337 20.3063 13.8144 20.1654 13.8144C19.9655 13.8144 19.7989 13.8516 19.6656 13.9259C19.5349 14.0002 19.4696 14.0925 19.4696 14.2027C19.4696 14.254 19.4798 14.304 19.5003 14.3526C19.5208 14.4013 19.5593 14.459 19.6156 14.5256C19.672 14.5897 19.7463 14.6615 19.8386 14.7409C19.9309 14.8178 20.0757 14.9331 20.273 15.0869L20.5498 15.306C20.6318 15.3727 20.7202 15.4534 20.8151 15.5482C20.9099 15.6431 20.9919 15.7366 21.0611 15.8289C21.1303 15.9211 21.1829 16.0057 21.2187 16.0826C21.2572 16.1595 21.2854 16.2377 21.3033 16.3171C21.3212 16.394 21.3302 16.4773 21.3302 16.567C21.3302 16.7976 21.2751 17.0181 21.1649 17.2282C21.0547 17.4358 20.8984 17.6075 20.6959 17.7434C20.4934 17.8766 20.2705 17.9702 20.027 18.024C19.7861 18.0778 19.5311 18.1047 19.262 18.1047C18.8468 18.1047 18.3227 18.0445 17.6896 17.924Z" fill="white"/>
<path d="M22.0414 17.924C22.0081 17.3781 21.9697 16.9412 21.9261 16.6131C22.2131 16.7413 22.4681 16.831 22.6911 16.8822C22.9167 16.9309 23.114 16.9553 23.2831 16.9553C23.5061 16.9553 23.683 16.9232 23.8137 16.8592C23.9469 16.7925 24.0136 16.6951 24.0136 16.567C24.0136 16.5234 24.0072 16.4824 23.9943 16.444C23.9815 16.403 23.9572 16.3581 23.9213 16.3094C23.8854 16.2582 23.8342 16.2031 23.7675 16.1441L23.0448 15.5136C22.8756 15.3701 22.7578 15.2663 22.6911 15.2022C22.5553 15.0715 22.4489 14.9498 22.372 14.837C22.2977 14.7243 22.2426 14.6102 22.2067 14.4949C22.1734 14.377 22.1568 14.2527 22.1568 14.122C22.1568 13.9656 22.1837 13.8132 22.2375 13.6645C22.2939 13.5133 22.3772 13.3723 22.4874 13.2416C22.5976 13.1109 22.7437 12.9982 22.9256 12.9033C23.1076 12.8085 23.3024 12.7444 23.51 12.7111C23.7176 12.6752 23.9316 12.6573 24.152 12.6573C24.5851 12.6573 25.0567 12.7073 25.5667 12.8072C25.5744 12.9841 25.5833 13.1468 25.5936 13.2955C25.6038 13.4415 25.6282 13.6991 25.6666 14.0682C25.4309 13.9733 25.2156 13.908 25.0208 13.8721C24.826 13.8337 24.6581 13.8144 24.5172 13.8144C24.3173 13.8144 24.1507 13.8516 24.0174 13.9259C23.8867 14.0002 23.8214 14.0925 23.8214 14.2027C23.8214 14.254 23.8316 14.304 23.8521 14.3526C23.8726 14.4013 23.9111 14.459 23.9674 14.5256C24.0238 14.5897 24.0981 14.6615 24.1904 14.7409C24.2827 14.8178 24.4275 14.9331 24.6248 15.0869L24.9016 15.306C24.9836 15.3727 25.072 15.4534 25.1669 15.5482C25.2617 15.6431 25.3437 15.7366 25.4129 15.8289C25.4821 15.9211 25.5347 16.0057 25.5705 16.0826C25.609 16.1595 25.6372 16.2377 25.6551 16.3171C25.673 16.394 25.682 16.4773 25.682 16.567C25.682 16.7976 25.6269 17.0181 25.5167 17.2282C25.4065 17.4358 25.2502 17.6075 25.0477 17.7434C24.8452 17.8766 24.6223 17.9702 24.3788 18.024C24.1379 18.0778 23.8829 18.1047 23.6138 18.1047C23.1986 18.1047 22.6745 18.0445 22.0414 17.924Z" fill="white"/>
<rect x="0.5" y="0.5" width="31" height="20.3846" stroke="white"/>
</svg>
