<svg width="35" height="35" viewBox="0 0 35 35" fill="none" xmlns="http://www.w3.org/2000/svg">
<path d="M3.28119 0C1.4656 0 0 1.4656 0 3.27682V31.6723C0 33.4835 1.46779 34.9491 3.28119 34.9491H5.46866C7.27769 34.9491 8.74766 33.4835 8.74766 31.6723V3.27682C8.74766 1.4656 7.27769 0 5.46647 0H3.28119ZM14.2141 0C12.4029 0 10.9329 1.4656 10.9329 3.27682V31.6723C10.9329 33.4835 12.4029 34.9491 14.2141 34.9491H16.4016C18.2128 34.9491 19.6806 33.4835 19.6806 31.6723V3.27682C19.6806 1.46779 18.2128 0 16.3994 0H14.2119H14.2141ZM30.0076 9.09328C29.9077 8.66025 29.7208 8.25204 29.4584 7.89341C29.1959 7.53478 28.8633 7.2332 28.4808 7.00696C28.0983 6.78073 27.6738 6.63455 27.2331 6.57731C26.7924 6.52007 26.3447 6.55294 25.9171 6.67395L24.2874 7.13331C23.4912 7.35841 22.8097 7.87636 22.3796 8.58316C21.9495 9.28997 21.8027 10.1333 21.9687 10.9439L26.3502 32.3788C26.4397 32.8133 26.6164 33.2251 26.8695 33.5893C27.1227 33.9536 27.4471 34.2627 27.8231 34.498C28.1991 34.7334 28.6189 34.89 29.0572 34.9585C29.4954 35.027 29.943 35.0059 30.3729 34.8966L32.5276 34.3497C34.2557 33.9122 35.3144 32.1754 34.9163 30.4407L30.0076 9.09328Z" fill="white"/>
</svg>
