<svg width="30" height="28" viewBox="0 0 30 28" fill="none" xmlns="http://www.w3.org/2000/svg">
<path d="M2.50117 0H4.98984C5.62064 0.000115774 6.2281 0.238576 6.69053 0.667609C7.15295 1.09664 7.43619 1.68456 7.4835 2.31358L7.49101 2.50117V25.0117C7.49058 25.6426 7.25184 26.2501 6.82261 26.7125C6.39337 27.1749 5.80531 27.4581 5.17617 27.5054L4.98859 27.5129H2.50117C1.87046 27.5125 1.26316 27.2739 0.800791 26.8449C0.338425 26.416 0.0550988 25.8282 0.00750369 25.1993L1.25394e-07 25.0117V2.50117C-0.000199567 1.87015 0.23812 1.26238 0.667184 0.799689C1.09625 0.336996 1.68434 0.0535792 2.31358 0.00625307L2.50117 0ZM11.249 0H13.7439C14.3747 0.000115774 14.9822 0.238576 15.4446 0.667609C15.9071 1.09664 16.1903 1.68456 16.2376 2.31358L16.2451 2.50117V25.0117C16.2447 25.6426 16.0059 26.2501 15.5767 26.7125C15.1475 27.1749 14.5594 27.4581 13.9303 27.5054L13.7427 27.5129H11.249C10.618 27.5131 10.0102 27.2748 9.54754 26.8457C9.08484 26.4166 8.80143 25.8285 8.7541 25.1993L8.74785 25.0117V2.50117C8.74765 1.87015 8.98597 1.26238 9.41503 0.799689C9.84409 0.336996 10.4322 0.0535792 11.0614 0.00625307L11.249 0ZM22.6731 2.53369C23.7286 2.53369 24.6941 3.2065 25.0405 4.23448L25.098 4.43082L29.9253 23.7936C30.0784 24.4059 29.9944 25.0534 29.6901 25.6064C29.3858 26.1593 28.8837 26.5768 28.2845 26.775L28.1044 26.8263L25.6495 27.4391C25.0403 27.5903 24.3964 27.507 23.8456 27.2059C23.2949 26.9048 22.8773 26.4078 22.6756 25.8133L22.6181 25.6157L17.7908 6.25293C17.6381 5.64066 17.7225 4.9933 18.027 4.44062C18.3315 3.88793 18.8337 3.47078 19.4328 3.27278L19.6117 3.22026L22.0666 2.60872C22.2692 2.5587 22.473 2.53369 22.6731 2.53369ZM4.98984 1.87588H2.50117C2.35495 1.87631 2.21347 1.92778 2.10114 2.02138C1.98881 2.11499 1.91268 2.24487 1.88588 2.38862L1.87588 2.50117V25.0117C1.87588 25.3168 2.09848 25.5745 2.38862 25.627L2.50117 25.637H4.98984C5.29623 25.637 5.5526 25.4144 5.60512 25.1243L5.61513 25.0117V2.50117C5.61493 2.35489 5.56356 2.21328 5.46991 2.1009C5.37626 1.98852 5.24624 1.91245 5.10239 1.88588L4.98984 1.87588ZM13.7439 1.87588H11.249C11.1027 1.87607 10.9611 1.92745 10.8487 2.0211C10.7364 2.11475 10.6603 2.24477 10.6337 2.38862L10.6237 2.50117V25.0117C10.6237 25.3168 10.8451 25.5745 11.1365 25.627L11.249 25.637H13.7439C14.0503 25.637 14.3067 25.4144 14.3592 25.1243L14.3692 25.0117V2.50117C14.369 2.35489 14.3177 2.21328 14.224 2.1009C14.1304 1.98852 14.0003 1.91245 13.8565 1.88588L13.7439 1.87588ZM22.6731 4.40956L22.5968 4.41457L22.5193 4.42832L20.0656 5.04111C19.9236 5.07652 19.7986 5.16062 19.7122 5.27876C19.6258 5.39691 19.5836 5.54161 19.5929 5.68766L19.6104 5.79771L24.4377 25.1618C24.519 25.4869 24.8091 25.637 25.043 25.637L25.1205 25.6332L25.1955 25.617L27.6504 25.0054C27.7922 24.9701 27.9171 24.8862 28.0035 24.7683C28.0899 24.6504 28.1322 24.506 28.1232 24.3601L28.1057 24.2476L23.2784 4.88353C23.2451 4.7482 23.1674 4.62794 23.0576 4.54201C22.9479 4.45608 22.8125 4.40944 22.6731 4.40956Z" fill="white"/>
</svg>
