<svg width="22" height="29" viewBox="0 0 22 29" fill="none" xmlns="http://www.w3.org/2000/svg">
<path d="M19.6558 14.4975C19.6558 15.4739 19.4931 16.414 19.1953 17.2899L17.7861 15.8808C17.8783 15.4255 17.9247 14.9621 17.9246 14.4975V12.7663C17.9246 12.5368 18.0158 12.3166 18.1781 12.1543C18.3405 11.9919 18.5606 11.9007 18.7902 11.9007C19.0198 11.9007 19.2399 11.9919 19.4023 12.1543C19.5646 12.3166 19.6558 12.5368 19.6558 12.7663V14.4975ZM10.9998 21.4223C12.416 21.4223 13.7317 20.9982 14.8292 20.2676L16.0722 21.5123C14.8364 22.4085 13.3846 22.96 11.8654 23.1102V26.6159H17.059C17.2886 26.6159 17.5088 26.7071 17.6711 26.8694C17.8334 27.0317 17.9246 27.2519 17.9246 27.4815C17.9246 27.711 17.8334 27.9312 17.6711 28.0935C17.5088 28.2559 17.2886 28.3471 17.059 28.3471H4.94066C4.71109 28.3471 4.49092 28.2559 4.32859 28.0935C4.16626 27.9312 4.07507 27.711 4.07507 27.4815C4.07507 27.2519 4.16626 27.0317 4.32859 26.8694C4.49092 26.7071 4.71109 26.6159 4.94066 26.6159H10.1342V23.1102C7.99913 22.8956 6.01984 21.8956 4.58037 20.3042C3.14089 18.7128 2.34385 16.6434 2.34387 14.4975V12.7663C2.34387 12.5368 2.43507 12.3166 2.5974 12.1543C2.75973 11.9919 2.9799 11.9007 3.20947 11.9007C3.43904 11.9007 3.65921 11.9919 3.82154 12.1543C3.98387 12.3166 4.07507 12.5368 4.07507 12.7663V14.4975C4.07507 16.3341 4.80464 18.0954 6.10328 19.3941C7.40193 20.6927 9.16327 21.4223 10.9998 21.4223ZM16.1934 5.84157V14.2881L14.4622 12.5569V5.84157C14.4662 4.93834 14.1171 4.0693 13.4893 3.41986C12.8616 2.77043 12.0049 2.39202 11.102 2.36536C10.1992 2.33871 9.32167 2.66592 8.6567 3.27719C7.99172 3.88846 7.59194 4.73539 7.54264 5.63729L6.07979 4.17443C6.47613 3.00976 7.27292 2.02352 8.32832 1.39131C9.38372 0.759093 10.6292 0.521924 11.8431 0.722021C13.057 0.922119 14.1605 1.5465 14.9571 2.48401C15.7538 3.42151 16.1919 4.6113 16.1934 5.84157Z" fill="white"/>
<path d="M13.5726 19.012L12.2776 17.717C11.7524 17.9256 11.1841 18.0024 10.6224 17.9407C10.0607 17.8791 9.52261 17.6809 9.0551 17.3635C8.58759 17.0461 8.20487 16.6191 7.94036 16.1197C7.67584 15.6204 7.53757 15.0639 7.53761 14.4988V12.9788L5.80642 11.2476V14.4988C5.80615 15.4082 6.04469 16.3017 6.49816 17.09C6.95164 17.8783 7.60416 18.5337 8.39045 18.9907C9.17675 19.4476 10.0692 19.6901 10.9787 19.6938C11.8881 19.6976 12.7825 19.4625 13.5726 19.012ZM0 2.99326L20.7743 23.7676L22 22.5419L1.22568 1.76758L0 2.99326Z" fill="white"/>
</svg>
