<svg width="35" height="37" viewBox="0 0 35 37" fill="none" xmlns="http://www.w3.org/2000/svg">
<path d="M17.5067 13.4452C16.2718 13.4452 15.1154 13.9243 14.2399 14.7999C13.3685 15.6754 12.8852 16.8318 12.8852 18.0667C12.8852 19.3016 13.3685 20.458 14.2399 21.3335C15.1154 22.2049 16.2718 22.6882 17.5067 22.6882C18.7416 22.6882 19.898 22.2049 20.7736 21.3335C21.645 20.458 22.1282 19.3016 22.1282 18.0667C22.1282 16.8318 21.645 15.6754 20.7736 14.7999C20.3459 14.3689 19.8369 14.0273 19.2761 13.7947C18.7153 13.5622 18.1138 13.4434 17.5067 13.4452ZM34.5347 23.1714L31.8337 20.8627C31.9617 20.078 32.0278 19.2768 32.0278 18.4797C32.0278 17.6826 31.9617 16.8772 31.8337 16.0967L34.5347 13.788C34.7388 13.6133 34.8848 13.3807 34.9534 13.121C35.022 12.8613 35.0099 12.5869 34.9188 12.3342L34.8816 12.2269C34.1383 10.1482 33.0245 8.22141 31.5942 6.53986L31.5198 6.45313C31.3461 6.24891 31.1147 6.1021 30.8559 6.03206C30.5971 5.96202 30.3232 5.97203 30.0702 6.06078L26.7166 7.25435C25.4776 6.23837 24.0982 5.43715 22.6031 4.8796L21.9547 1.37323C21.9058 1.10908 21.7777 0.866071 21.5874 0.676485C21.397 0.486899 21.1535 0.359709 20.8892 0.311815L20.7777 0.291165C18.6301 -0.097055 16.3668 -0.097055 14.2192 0.291165L14.1077 0.311815C13.8434 0.359709 13.5999 0.486899 13.4096 0.676485C13.2192 0.866071 13.0911 1.10908 13.0422 1.37323L12.3896 4.89612C10.9087 5.45811 9.52918 6.25739 8.30507 7.26261L4.92673 6.06078C4.67383 5.97133 4.3997 5.96096 4.14077 6.03104C3.88183 6.10112 3.65036 6.24834 3.4771 6.45313L3.40276 6.53986C1.97498 8.2232 0.861446 10.1495 0.115273 12.2269L0.0781028 12.3342C-0.107747 12.8505 0.0450629 13.4287 0.462193 13.788L3.19626 16.1215C3.06823 16.8979 3.00627 17.6909 3.00627 18.4756C3.00627 19.2685 3.06823 20.0615 3.19626 20.8297L0.470453 23.1631C0.266413 23.3378 0.120379 23.5704 0.0517698 23.8301C-0.0168398 24.0898 -0.00477412 24.3642 0.0863627 24.6169L0.123533 24.7242C0.871063 26.8016 1.97377 28.7221 3.41102 30.4113L3.48536 30.498C3.65904 30.7022 3.89053 30.849 4.1493 30.9191C4.40808 30.9891 4.68201 30.9791 4.93499 30.8903L8.31333 29.6885C9.54407 30.7004 10.9152 31.5016 12.3979 32.055L13.0504 35.5779C13.0994 35.842 13.2275 36.085 13.4178 36.2746C13.6081 36.4642 13.8517 36.5914 14.116 36.6393L14.2275 36.6599C16.3962 37.0503 18.6172 37.0503 20.7859 36.6599L20.8974 36.6393C21.1618 36.5914 21.4053 36.4642 21.5956 36.2746C21.7859 36.085 21.9141 35.842 21.963 35.5779L22.6114 32.0715C24.1065 31.5098 25.4859 30.7127 26.7249 29.6968L30.0785 30.8903C30.3313 30.9798 30.6055 30.9902 30.8644 30.9201C31.1233 30.85 31.3548 30.7028 31.5281 30.498L31.6024 30.4113C33.0397 28.7138 34.1424 26.8016 34.8899 24.7242L34.9271 24.6169C35.1047 24.1047 34.9519 23.5307 34.5347 23.1714ZM17.5067 25.3272C13.4965 25.3272 10.2462 22.0769 10.2462 18.0667C10.2462 14.0565 13.4965 10.8061 17.5067 10.8061C21.517 10.8061 24.7673 14.0565 24.7673 18.0667C24.7673 22.0769 21.517 25.3272 17.5067 25.3272Z" fill="white"/>
</svg>
