<svg width="35" height="35" viewBox="0 0 35 35" fill="none" xmlns="http://www.w3.org/2000/svg">
<path d="M8.75 4.375V8.75H1.45833C1.07156 8.75 0.700627 8.90365 0.427136 9.17714C0.153646 9.45063 0 9.82156 0 10.2083V29.1667C0 30.7138 0.614581 32.1975 1.70854 33.2915C2.80251 34.3854 4.28624 35 5.83333 35H29.1667C30.7138 35 32.1975 34.3854 33.2915 33.2915C34.3854 32.1975 35 30.7138 35 29.1667V10.2083C35 9.82156 34.8464 9.45063 34.5729 9.17714C34.2994 8.90365 33.9284 8.75 33.5417 8.75H26.25V4.375C26.25 3.21468 25.7891 2.10188 24.9686 1.28141C24.1481 0.460936 23.0353 0 21.875 0H13.125C11.9647 0 10.8519 0.460936 10.0314 1.28141C9.21094 2.10188 8.75 3.21468 8.75 4.375ZM13.125 2.91667H21.875C22.2618 2.91667 22.6327 3.07031 22.9062 3.3438C23.1797 3.61729 23.3333 3.98823 23.3333 4.375V8.75H11.6667V4.375C11.6667 3.98823 11.8203 3.61729 12.0938 3.3438C12.3673 3.07031 12.7382 2.91667 13.125 2.91667ZM10.2083 20.4167V14.5833H16.0417V20.4167H10.2083ZM10.2083 29.1667V23.3333H16.0417V29.1667H10.2083ZM24.7917 20.4167H18.9583V14.5833H24.7917V20.4167ZM18.9583 29.1667V23.3333H24.7917V29.1667H18.9583Z" fill="white"/>
</svg>
