<svg width="30" height="30" viewBox="0 0 30 30" fill="white" xmlns="http://www.w3.org/2000/svg">
<path d="M14.0625 11.25V16.875H8.4375V11.25H14.0625ZM14.0625 24.375V18.75H8.4375V24.375H14.0625ZM21.5625 11.25V16.875H15.9375V11.25H21.5625ZM21.5625 24.375V18.75H15.9375V24.375H21.5625ZM9.375 5.625V2.8125C9.375 2.06658 9.67132 1.35121 10.1988 0.823762C10.7262 0.296316 11.4416 0 12.1875 0H17.8125C18.5584 0 19.2738 0.296316 19.8012 0.823762C20.3287 1.35121 20.625 2.06658 20.625 2.8125V5.625H29.0625C29.3111 5.625 29.5496 5.72377 29.7254 5.89959C29.9012 6.0754 30 6.31386 30 6.5625V25.3125C30 26.5557 29.5061 27.748 28.6271 28.6271C27.748 29.5061 26.5557 30 25.3125 30H4.6875C3.4443 30 2.25201 29.5061 1.37294 28.6271C0.49386 27.748 0 26.5557 0 25.3125V6.5625C0 6.31386 0.0987722 6.0754 0.274588 5.89959C0.450403 5.72377 0.68886 5.625 0.9375 5.625H9.375ZM11.25 2.8125V5.625H18.75V2.8125C18.75 2.56386 18.6512 2.3254 18.4754 2.14959C18.2996 1.97377 18.0611 1.875 17.8125 1.875H12.1875C11.9389 1.875 11.7004 1.97377 11.5246 2.14959C11.3488 2.3254 11.25 2.56386 11.25 2.8125ZM1.875 25.3125C1.875 26.0584 2.17132 26.7738 2.69876 27.3012C3.22621 27.8287 3.94158 28.125 4.6875 28.125H25.3125C26.0584 28.125 26.7738 27.8287 27.3012 27.3012C27.8287 26.7738 28.125 26.0584 28.125 25.3125V7.5H1.875V25.3125Z" fill="white"/>
</svg>
