<svg width="74" height="16" viewBox="0 0 74 16" fill="none" xmlns="http://www.w3.org/2000/svg">
<path fill-rule="evenodd" clip-rule="evenodd" d="M74 0.708008H0V15.2919H74V0.708008ZM4.35228 4.29269C4.33139 4.46046 4.32094 4.63233 4.32094 4.80828V9.48545C4.32094 9.89874 4.40711 10.265 4.57946 10.5842C4.75703 10.9033 5.0051 11.1714 5.32368 11.3882C5.64748 11.6051 6.03134 11.7708 6.47526 11.8854C6.91918 11.9959 7.41271 12.0511 7.95586 12.0511C8.49379 12.0511 8.98471 11.9979 9.42863 11.8915C9.87777 11.7811 10.2616 11.6194 10.5802 11.4066C10.904 11.1898 11.1521 10.9217 11.3244 10.6026C11.502 10.2834 11.5908 9.91102 11.5908 9.48545V4.80828C11.5908 4.63233 11.5777 4.46046 11.5516 4.29269C11.5307 4.12492 11.4759 3.97556 11.3871 3.84461C11.3035 3.71367 11.1756 3.60932 11.0032 3.53158C10.8309 3.44974 10.5933 3.40882 10.2904 3.40882C9.98222 3.40882 9.74198 3.44974 9.56964 3.53158C9.39729 3.60932 9.26673 3.71367 9.17794 3.84461C9.09438 3.97556 9.04216 4.12492 9.02127 4.29269C9.00038 4.46046 8.98993 4.63233 8.98993 4.80828V9.64504C8.97949 9.82508 8.93509 9.98467 8.85676 10.1238C8.82542 10.1852 8.78364 10.2445 8.73141 10.3018C8.67919 10.3591 8.61652 10.4102 8.5434 10.4553C8.47551 10.5003 8.39194 10.5371 8.29272 10.5657C8.19349 10.5903 8.0812 10.6026 7.95586 10.6026C7.83052 10.6026 7.71823 10.5903 7.619 10.5657C7.525 10.5371 7.44144 10.5003 7.36832 10.4553C7.30043 10.4102 7.24037 10.3591 7.18814 10.3018C7.13591 10.2445 7.09413 10.1852 7.0628 10.1238C6.98446 9.98467 6.93746 9.82508 6.92179 9.64504V4.80828C6.92179 4.63233 6.91134 4.46046 6.89045 4.29269C6.86956 4.12492 6.81473 3.97556 6.72594 3.84461C6.64238 3.71367 6.51182 3.60932 6.33425 3.53158C6.1619 3.44974 5.92427 3.40882 5.62137 3.40882C5.31846 3.40882 5.08083 3.44974 4.90848 3.53158C4.73614 3.60932 4.60557 3.71367 4.51679 3.84461C4.43323 3.97556 4.37839 4.12492 4.35228 4.29269ZM14.0976 4.30497C14.0767 4.47274 14.0663 4.6446 14.0663 4.82056V11.0936C14.0663 11.3023 14.1055 11.468 14.1838 11.5908C14.2621 11.7095 14.3744 11.7995 14.5206 11.8609C14.6721 11.9222 14.8549 11.9611 15.069 11.9775C15.2831 11.9938 15.5286 12.002 15.8054 12.002H18.0302C18.2443 12.002 18.4559 11.9938 18.6648 11.9775C18.8737 11.9611 19.0591 11.9222 19.221 11.8609C19.3881 11.7995 19.5213 11.7095 19.6205 11.5908C19.7197 11.468 19.7693 11.3023 19.7693 11.0936C19.7693 10.889 19.7197 10.7274 19.6205 10.6087C19.5213 10.49 19.3881 10.4 19.221 10.3386C19.0591 10.2773 18.8737 10.2384 18.6648 10.222C18.4559 10.2056 18.2443 10.1975 18.0302 10.1975H16.4948V4.82056C16.4948 4.6446 16.4843 4.47274 16.4634 4.30497C16.4478 4.13719 16.4008 3.98783 16.3224 3.85689C16.2441 3.72185 16.1214 3.61342 15.9542 3.53158C15.7871 3.44974 15.5547 3.40882 15.257 3.40882C14.9802 3.40882 14.7635 3.44974 14.6068 3.53158C14.4501 3.61342 14.33 3.72185 14.2465 3.85689C14.1681 3.98783 14.1185 4.13719 14.0976 4.30497ZM26.0991 3.40882C26.308 3.40882 26.5169 3.41495 26.7258 3.42723C26.9399 3.43951 27.1332 3.47429 27.3055 3.53158C27.4779 3.58886 27.6163 3.67684 27.7207 3.79551C27.8304 3.91009 27.8852 4.07172 27.8852 4.28041C27.8852 4.48501 27.8304 4.64665 27.7207 4.76532C27.6163 4.87989 27.4779 4.96582 27.3055 5.02311C27.1332 5.0804 26.9399 5.11723 26.7258 5.1336C26.5169 5.14587 26.308 5.15201 26.0991 5.15201H25.3001V10.6026C25.3001 10.7785 25.2922 10.9504 25.2766 11.1182C25.2661 11.2859 25.2243 11.4353 25.1512 11.5662C25.0781 11.6972 24.9606 11.8036 24.7987 11.8854C24.6368 11.9632 24.407 12.002 24.1093 12.002C23.8116 12.002 23.5818 11.9632 23.4199 11.8854C23.258 11.8036 23.1405 11.6972 23.0674 11.5662C22.9943 11.4353 22.9499 11.2859 22.9342 11.1182C22.9238 10.9504 22.9186 10.7785 22.9186 10.6026V5.15201H22.1195C21.9106 5.15201 21.6991 5.14587 21.485 5.1336C21.2761 5.11723 21.0854 5.0804 20.9131 5.02311C20.7407 4.96582 20.5997 4.87989 20.4901 4.76532C20.3856 4.64665 20.3334 4.48501 20.3334 4.28041C20.3334 4.07172 20.3856 3.91009 20.4901 3.79551C20.5997 3.67684 20.7407 3.58886 20.9131 3.53158C21.0854 3.47429 21.2761 3.43951 21.485 3.42723C21.6991 3.41495 21.9106 3.40882 22.1195 3.40882H26.0991ZM29.2953 4.30497C29.2744 4.47274 29.264 4.6446 29.264 4.82056V10.5903C29.264 10.7703 29.2744 10.9442 29.2953 11.112C29.3214 11.2798 29.3763 11.4312 29.4598 11.5662C29.5486 11.6972 29.6792 11.8036 29.8515 11.8854C30.0239 11.9632 30.2615 12.002 30.5644 12.002C30.8673 12.002 31.105 11.9632 31.2773 11.8854C31.4549 11.8036 31.5854 11.6972 31.669 11.5662C31.7578 11.4312 31.8126 11.2798 31.8335 11.112C31.8544 10.9442 31.8648 10.7703 31.8648 10.5903V4.82056C31.8648 4.6446 31.8518 4.47274 31.8257 4.30497C31.8048 4.13719 31.7499 3.98783 31.6612 3.85689C31.5776 3.72185 31.4496 3.61342 31.2773 3.53158C31.105 3.44974 30.8673 3.40882 30.5644 3.40882C30.2615 3.40882 30.0239 3.44974 29.8515 3.53158C29.6792 3.61342 29.5486 3.72185 29.4598 3.85689C29.3763 3.98783 29.3214 4.13719 29.2953 4.30497ZM39.307 10.0133C39.1556 10.0133 39.025 9.99081 38.9153 9.9458C38.8109 9.90079 38.7195 9.8435 38.6411 9.77393C38.5628 9.70437 38.4949 9.62662 38.4375 9.54069C38.3852 9.45476 38.3408 9.37087 38.3043 9.28903L36.8158 5.9254H36.6122V11.0445C36.6122 11.1754 36.6017 11.2982 36.5808 11.4128C36.5599 11.5274 36.5129 11.6297 36.4398 11.7197C36.3719 11.8056 36.2675 11.8752 36.1265 11.9284C35.9907 11.9775 35.8027 12.002 35.5624 12.002C35.2909 12.002 35.0767 11.9775 34.9201 11.9284C34.7634 11.8752 34.6459 11.8056 34.5675 11.7197C34.4892 11.6297 34.4396 11.5274 34.4187 11.4128C34.3978 11.2982 34.3873 11.1754 34.3873 11.0445V4.80828C34.3873 4.63233 34.3926 4.46046 34.403 4.29269C34.4187 4.12492 34.4631 3.97556 34.5362 3.84461C34.6093 3.71367 34.7242 3.60932 34.8809 3.53158C35.0428 3.44974 35.27 3.40882 35.5624 3.40882H36.6278C36.8054 3.40882 36.9542 3.41495 37.0744 3.42723C37.1997 3.43541 37.3146 3.4702 37.4191 3.53158C37.5235 3.58886 37.6254 3.68298 37.7246 3.81392C37.829 3.94487 37.9413 4.13105 38.0614 4.37248C38.1868 4.60982 38.3304 4.91467 38.4923 5.28705C38.6542 5.65533 38.8527 6.10954 39.0877 6.64969L39.2914 7.14073H39.4794L39.73 6.52693C39.9442 6.01133 40.127 5.57553 40.2784 5.21953C40.4299 4.86352 40.5631 4.57095 40.6779 4.34179C40.7928 4.10855 40.8947 3.93055 40.9835 3.80779C41.0775 3.68093 41.1741 3.58886 41.2733 3.53158C41.3778 3.4702 41.4901 3.43541 41.6102 3.42723C41.7303 3.41495 41.8765 3.40882 42.0489 3.40882H43.1926C43.4851 3.40882 43.7097 3.44974 43.8663 3.53158C44.0282 3.60932 44.1457 3.71367 44.2189 3.84461C44.292 3.97556 44.3338 4.12492 44.3442 4.29269C44.3599 4.46046 44.3677 4.63233 44.3677 4.80828V11.0445C44.3677 11.1754 44.3573 11.2982 44.3364 11.4128C44.3155 11.5274 44.2659 11.6297 44.1875 11.7197C44.1092 11.8056 43.9917 11.8752 43.835 11.9284C43.6783 11.9775 43.4642 12.002 43.1926 12.002C42.9524 12.002 42.7618 11.9775 42.6208 11.9284C42.485 11.8752 42.3805 11.8056 42.3074 11.7197C42.2395 11.6297 42.1951 11.5274 42.1742 11.4128C42.1533 11.2982 42.1429 11.1754 42.1429 11.0445V5.9254H41.9235L40.4508 9.28903C40.409 9.37087 40.362 9.45476 40.3098 9.54069C40.2575 9.62662 40.1922 9.70437 40.1139 9.77393C40.0356 9.8435 39.9442 9.90079 39.8397 9.9458C39.7353 9.99081 39.6099 10.0133 39.4637 10.0133H39.307ZM51.2302 8.29467H48.739L49.8984 5.0047H50.0708L51.2302 8.29467ZM53.6978 9.74938C53.6822 9.45885 53.6691 9.17445 53.6587 8.8962L52.0292 4.56276C51.9718 4.41136 51.9065 4.26609 51.8334 4.12696C51.7655 3.98374 51.6715 3.86098 51.5514 3.75868C51.4312 3.65229 51.2746 3.5684 51.0813 3.50702C50.8933 3.44155 50.6557 3.40882 50.3685 3.40882H49.5851C49.2926 3.40882 49.0524 3.44155 48.8643 3.50702C48.6763 3.5684 48.5223 3.65229 48.4021 3.75868C48.282 3.86098 48.1854 3.98374 48.1123 4.12696C48.0392 4.26609 47.9765 4.41136 47.9243 4.56276C47.6632 5.27886 47.389 6.00315 47.1017 6.73562C46.8145 7.464 46.5403 8.18419 46.2792 8.8962C46.2739 9.02714 46.2687 9.16627 46.2635 9.31358L46.2478 9.74938L46.2322 10.1852V10.5903V10.7744C46.2322 10.9299 46.2374 11.0813 46.2478 11.2286C46.2583 11.3719 46.2974 11.5028 46.3653 11.6215C46.4332 11.7361 46.5403 11.8281 46.6865 11.8977C46.8328 11.9673 47.0417 12.002 47.3132 12.002C47.5848 12.002 47.7937 11.9673 47.9399 11.8977C48.0862 11.8281 48.1932 11.7361 48.2611 11.6215C48.3343 11.5069 48.376 11.376 48.3865 11.2286C48.4021 11.0813 48.41 10.9299 48.41 10.7744V9.91511H51.5435V10.7744C51.5435 10.9299 51.5488 11.0813 51.5592 11.2286C51.5749 11.376 51.6166 11.5069 51.6845 11.6215C51.7577 11.7361 51.8673 11.8281 52.0136 11.8977C52.1598 11.9673 52.3687 12.002 52.6403 12.002C52.9066 12.002 53.1129 11.9673 53.2591 11.8977C53.4054 11.8281 53.5124 11.7361 53.5803 11.6215C53.6482 11.5028 53.6874 11.3719 53.6978 11.2286C53.7135 11.0813 53.7213 10.9299 53.7213 10.7744V10.5903C53.7213 10.3202 53.7135 10.0399 53.6978 9.74938ZM60.1451 3.40882C60.354 3.40882 60.5629 3.41495 60.7718 3.42723C60.986 3.43951 61.1792 3.47429 61.3515 3.53158C61.5239 3.58886 61.6623 3.67684 61.7667 3.79551C61.8764 3.91009 61.9312 4.07172 61.9312 4.28041C61.9312 4.48501 61.8764 4.64665 61.7667 4.76532C61.6623 4.87989 61.5239 4.96582 61.3515 5.02311C61.1792 5.0804 60.986 5.11723 60.7718 5.1336C60.5629 5.14587 60.354 5.15201 60.1451 5.15201H59.3461V10.6026C59.3461 10.7785 59.3382 10.9504 59.3226 11.1182C59.3121 11.2859 59.2703 11.4353 59.1972 11.5662C59.1241 11.6972 59.0066 11.8036 58.8447 11.8854C58.6828 11.9632 58.453 12.002 58.1553 12.002C57.8576 12.002 57.6278 11.9632 57.4659 11.8854C57.304 11.8036 57.1865 11.6972 57.1134 11.5662C57.0403 11.4353 56.9959 11.2859 56.9802 11.1182C56.9698 10.9504 56.9646 10.7785 56.9646 10.6026V5.15201H56.1655C55.9566 5.15201 55.7451 5.14587 55.531 5.1336C55.3221 5.11723 55.1314 5.0804 54.9591 5.02311C54.7868 4.96582 54.6457 4.87989 54.5361 4.76532C54.4316 4.64665 54.3794 4.48501 54.3794 4.28041C54.3794 4.07172 54.4316 3.91009 54.5361 3.79551C54.6457 3.67684 54.7868 3.58886 54.9591 3.53158C55.1314 3.47429 55.3221 3.43951 55.531 3.42723C55.7451 3.41495 55.9566 3.40882 56.1655 3.40882H60.1451ZM67.9712 3.42723C67.757 3.41495 67.5455 3.40882 67.3366 3.40882H64.2657C63.9733 3.40882 63.7461 3.44974 63.5842 3.53158C63.4275 3.61342 63.3126 3.72185 63.2395 3.85689C63.1664 3.98783 63.122 4.13719 63.1063 4.30497C63.0959 4.47274 63.0907 4.6446 63.0907 4.82056V10.5903C63.0907 10.7662 63.0959 10.9381 63.1063 11.1059C63.122 11.2737 63.1664 11.4251 63.2395 11.5601C63.3126 11.691 63.4275 11.7974 63.5842 11.8793C63.7461 11.9611 63.9733 12.002 64.2657 12.002H67.3366C67.5403 12.002 67.7492 11.9959 67.9633 11.9836C68.1775 11.9713 68.3707 11.9366 68.543 11.8793C68.7154 11.822 68.8564 11.734 68.9661 11.6153C69.081 11.4967 69.1384 11.3309 69.1384 11.1182C69.1384 10.9136 69.0836 10.754 68.9739 10.6394C68.8642 10.5207 68.7232 10.4348 68.5509 10.3816C68.3785 10.3243 68.1853 10.2895 67.9712 10.2773C67.757 10.265 67.5455 10.2588 67.3366 10.2588H65.4722V8.49109H66.4592C66.6681 8.49109 66.877 8.487 67.0859 8.47881C67.3001 8.46654 67.4881 8.4338 67.65 8.38061C67.8171 8.32332 67.9529 8.23943 68.0573 8.12895C68.1618 8.01846 68.214 7.86092 68.214 7.65632C68.214 7.45581 68.1618 7.30031 68.0573 7.18983C67.9529 7.07525 67.8171 6.99137 67.65 6.93817C67.4881 6.88088 67.3001 6.84815 67.0859 6.83996C66.877 6.82769 66.6681 6.82155 66.4592 6.82155H65.4722V5.15201H67.3366C67.5455 5.15201 67.757 5.14587 67.9712 5.1336C68.1853 5.12132 68.3785 5.08654 68.5509 5.02925C68.7232 4.97196 68.8642 4.88603 68.9739 4.77145C69.0836 4.65279 69.1384 4.48911 69.1384 4.28041C69.1384 4.07172 69.0836 3.91009 68.9739 3.79551C68.8642 3.67684 68.7232 3.58886 68.5509 3.53158C68.3785 3.47429 68.1853 3.43951 67.9712 3.42723Z" fill="#D9D9D9"/>
</svg>
