<svg width="24" height="24" viewBox="0 0 24 24" fill="none" xmlns="http://www.w3.org/2000/svg">
<path d="M4.10401 21.0324C6.28763 22.9487 9.09472 24.0037 12 24C14.9071 24.004 17.7162 22.949 19.902 21.0324C21.7788 19.1208 15.5856 12.324 12 9.61559C8.418 12.324 2.22001 19.1208 4.10161 21.0324H4.10401ZM15.264 6.62639C17.7636 9.58799 22.7472 16.9404 21.3396 19.5384C23.0653 17.4068 24.0047 14.7462 24 12.0036C24.0022 10.415 23.6876 8.84186 23.0746 7.37626C22.4616 5.91067 21.5625 4.58201 20.43 3.468C20.43 3.468 20.4024 3.4464 20.3484 3.426C20.2581 3.39462 20.1631 3.37919 20.0676 3.3804C19.4748 3.3804 18.0816 3.8148 15.2616 6.62639H15.264ZM3.65401 3.4272C3.59641 3.4476 3.57241 3.468 3.56761 3.4692C2.43575 4.58361 1.53731 5.9124 0.92476 7.37794C0.312213 8.84348 -0.00215801 10.4164 1.11493e-05 12.0048C1.11493e-05 14.8596 0.99841 17.478 2.66041 19.5384C1.26121 16.932 6.2412 9.58559 8.742 6.62759C5.922 3.8136 4.52641 3.3816 3.93601 3.3816C3.84023 3.37848 3.74479 3.39439 3.65521 3.4284V3.426L3.65401 3.4272ZM12 3.552C12 3.552 9.0552 1.8288 6.756 1.7472C5.8524 1.7148 5.3004 2.0424 5.2344 2.0856C7.38 0.645599 9.66 0 11.9856 0H12C14.334 0 16.6056 0.645599 18.7656 2.0844C18.6984 2.0388 18.1512 1.7124 17.2464 1.746C14.946 1.8276 12 3.546 12 3.546V3.552Z" fill="white"/>
</svg>
